<?xml version="1.0" standalone="no"?><svg xmlns="http://www.w3.org/2000/svg" viewBox="0 0 1440 320"><path fill="#00cba9" fill-opacity="1" d="M0,0L24,42.7C48,85,96,171,144,202.7C192,235,240,213,288,176C336,139,384,85,432,53.3C480,21,528,11,576,37.3C624,64,672,128,720,138.7C768,149,816,107,864,74.7C912,43,960,21,1008,32C1056,43,1104,85,1152,106.7C1200,128,1248,128,1296,117.3C1344,107,1392,85,1416,74.7L1440,64L1440,320L1416,320C1392,320,1344,320,1296,320C1248,320,1200,320,1152,320C1104,320,1056,320,1008,320C960,320,912,320,864,320C816,320,768,320,720,320C672,320,624,320,576,320C528,320,480,320,432,320C384,320,336,320,288,320C240,320,192,320,144,320C96,320,48,320,24,320L0,320Z"></path></svg>